<mxfile host="app.diagrams.net" modified="2022-01-13T21:31:57.172Z" agent="5.0 (Windows NT 10.0; Win64; x64) AppleWebKit/537.36 (KHTML, like Gecko) Chrome/97.0.4692.71 Safari/537.36" etag="A5Va1EU9OU65oxQy3UqB" version="16.2.2" type="github">
  <diagram id="C5RBs43oDa-KdzZeNtuy" name="Page-1">
    <mxGraphModel dx="2500" dy="2056" grid="1" gridSize="10" guides="1" tooltips="1" connect="1" arrows="1" fold="1" page="1" pageScale="1" pageWidth="827" pageHeight="1169" math="0" shadow="0">
      <root>
        <mxCell id="WIyWlLk6GJQsqaUBKTNV-0" />
        <mxCell id="WIyWlLk6GJQsqaUBKTNV-1" parent="WIyWlLk6GJQsqaUBKTNV-0" />
        <mxCell id="YhvyymHdfNfUHOdtkPPd-0" value="Frame" style="swimlane;fontStyle=0;childLayout=stackLayout;horizontal=1;startSize=26;fillColor=none;horizontalStack=0;resizeParent=1;resizeParentMax=0;resizeLast=0;collapsible=1;marginBottom=0;" vertex="1" parent="WIyWlLk6GJQsqaUBKTNV-1">
          <mxGeometry x="414" y="20" width="140" height="138" as="geometry" />
        </mxCell>
        <mxCell id="YhvyymHdfNfUHOdtkPPd-80" value="- JFrame frame" style="text;strokeColor=none;fillColor=none;align=left;verticalAlign=top;spacingLeft=4;spacingRight=4;overflow=hidden;rotatable=0;points=[[0,0.5],[1,0.5]];portConstraint=eastwest;" vertex="1" parent="YhvyymHdfNfUHOdtkPPd-0">
          <mxGeometry y="26" width="140" height="26" as="geometry" />
        </mxCell>
        <mxCell id="YhvyymHdfNfUHOdtkPPd-79" value="" style="line;strokeWidth=1;fillColor=none;align=left;verticalAlign=middle;spacingTop=-1;spacingLeft=3;spacingRight=3;rotatable=0;labelPosition=right;points=[];portConstraint=eastwest;" vertex="1" parent="YhvyymHdfNfUHOdtkPPd-0">
          <mxGeometry y="52" width="140" height="8" as="geometry" />
        </mxCell>
        <mxCell id="YhvyymHdfNfUHOdtkPPd-1" value="+ show(): void" style="text;strokeColor=none;fillColor=none;align=left;verticalAlign=top;spacingLeft=4;spacingRight=4;overflow=hidden;rotatable=0;points=[[0,0.5],[1,0.5]];portConstraint=eastwest;" vertex="1" parent="YhvyymHdfNfUHOdtkPPd-0">
          <mxGeometry y="60" width="140" height="26" as="geometry" />
        </mxCell>
        <mxCell id="YhvyymHdfNfUHOdtkPPd-2" value="+ hide(): void" style="text;strokeColor=none;fillColor=none;align=left;verticalAlign=top;spacingLeft=4;spacingRight=4;overflow=hidden;rotatable=0;points=[[0,0.5],[1,0.5]];portConstraint=eastwest;" vertex="1" parent="YhvyymHdfNfUHOdtkPPd-0">
          <mxGeometry y="86" width="140" height="26" as="geometry" />
        </mxCell>
        <mxCell id="YhvyymHdfNfUHOdtkPPd-3" value="+ draw(): abstract void " style="text;strokeColor=none;fillColor=none;align=left;verticalAlign=top;spacingLeft=4;spacingRight=4;overflow=hidden;rotatable=0;points=[[0,0.5],[1,0.5]];portConstraint=eastwest;" vertex="1" parent="YhvyymHdfNfUHOdtkPPd-0">
          <mxGeometry y="112" width="140" height="26" as="geometry" />
        </mxCell>
        <mxCell id="YhvyymHdfNfUHOdtkPPd-83" style="edgeStyle=orthogonalEdgeStyle;rounded=0;orthogonalLoop=1;jettySize=auto;html=1;" edge="1" parent="WIyWlLk6GJQsqaUBKTNV-1" source="YhvyymHdfNfUHOdtkPPd-4" target="YhvyymHdfNfUHOdtkPPd-15">
          <mxGeometry relative="1" as="geometry" />
        </mxCell>
        <mxCell id="YhvyymHdfNfUHOdtkPPd-4" value="Game" style="swimlane;fontStyle=0;childLayout=stackLayout;horizontal=1;startSize=26;fillColor=none;horizontalStack=0;resizeParent=1;resizeParentMax=0;resizeLast=0;collapsible=1;marginBottom=0;" vertex="1" parent="WIyWlLk6GJQsqaUBKTNV-1">
          <mxGeometry x="310" y="220" width="140" height="658" as="geometry" />
        </mxCell>
        <mxCell id="YhvyymHdfNfUHOdtkPPd-14" value="-playerAmount: int" style="text;strokeColor=none;fillColor=none;align=left;verticalAlign=top;spacingLeft=4;spacingRight=4;overflow=hidden;rotatable=0;points=[[0,0.5],[1,0.5]];portConstraint=eastwest;" vertex="1" parent="YhvyymHdfNfUHOdtkPPd-4">
          <mxGeometry y="26" width="140" height="26" as="geometry" />
        </mxCell>
        <mxCell id="YhvyymHdfNfUHOdtkPPd-38" value="- aiAmount: int" style="text;strokeColor=none;fillColor=none;align=left;verticalAlign=top;spacingLeft=4;spacingRight=4;overflow=hidden;rotatable=0;points=[[0,0.5],[1,0.5]];portConstraint=eastwest;" vertex="1" parent="YhvyymHdfNfUHOdtkPPd-4">
          <mxGeometry y="52" width="140" height="26" as="geometry" />
        </mxCell>
        <mxCell id="YhvyymHdfNfUHOdtkPPd-40" value="- totalPlayerList: String[]" style="text;strokeColor=none;fillColor=none;align=left;verticalAlign=top;spacingLeft=4;spacingRight=4;overflow=hidden;rotatable=0;points=[[0,0.5],[1,0.5]];portConstraint=eastwest;" vertex="1" parent="YhvyymHdfNfUHOdtkPPd-4">
          <mxGeometry y="78" width="140" height="26" as="geometry" />
        </mxCell>
        <mxCell id="YhvyymHdfNfUHOdtkPPd-39" value="- currentPlayer: int " style="text;strokeColor=none;fillColor=none;align=left;verticalAlign=top;spacingLeft=4;spacingRight=4;overflow=hidden;rotatable=0;points=[[0,0.5],[1,0.5]];portConstraint=eastwest;" vertex="1" parent="YhvyymHdfNfUHOdtkPPd-4">
          <mxGeometry y="104" width="140" height="26" as="geometry" />
        </mxCell>
        <mxCell id="YhvyymHdfNfUHOdtkPPd-42" value="- diceTurn: int" style="text;strokeColor=none;fillColor=none;align=left;verticalAlign=top;spacingLeft=4;spacingRight=4;overflow=hidden;rotatable=0;points=[[0,0.5],[1,0.5]];portConstraint=eastwest;" vertex="1" parent="YhvyymHdfNfUHOdtkPPd-4">
          <mxGeometry y="130" width="140" height="26" as="geometry" />
        </mxCell>
        <mxCell id="YhvyymHdfNfUHOdtkPPd-44" value="- gameTurn: int" style="text;strokeColor=none;fillColor=none;align=left;verticalAlign=top;spacingLeft=4;spacingRight=4;overflow=hidden;rotatable=0;points=[[0,0.5],[1,0.5]];portConstraint=eastwest;" vertex="1" parent="YhvyymHdfNfUHOdtkPPd-4">
          <mxGeometry y="156" width="140" height="26" as="geometry" />
        </mxCell>
        <mxCell id="YhvyymHdfNfUHOdtkPPd-48" value="- maxRound: final int" style="text;strokeColor=none;fillColor=none;align=left;verticalAlign=top;spacingLeft=4;spacingRight=4;overflow=hidden;rotatable=0;points=[[0,0.5],[1,0.5]];portConstraint=eastwest;" vertex="1" parent="YhvyymHdfNfUHOdtkPPd-4">
          <mxGeometry y="182" width="140" height="26" as="geometry" />
        </mxCell>
        <mxCell id="YhvyymHdfNfUHOdtkPPd-47" value="- xpos: int" style="text;strokeColor=none;fillColor=none;align=left;verticalAlign=top;spacingLeft=4;spacingRight=4;overflow=hidden;rotatable=0;points=[[0,0.5],[1,0.5]];portConstraint=eastwest;" vertex="1" parent="YhvyymHdfNfUHOdtkPPd-4">
          <mxGeometry y="208" width="140" height="26" as="geometry" />
        </mxCell>
        <mxCell id="YhvyymHdfNfUHOdtkPPd-46" value="- ypos: int" style="text;strokeColor=none;fillColor=none;align=left;verticalAlign=top;spacingLeft=4;spacingRight=4;overflow=hidden;rotatable=0;points=[[0,0.5],[1,0.5]];portConstraint=eastwest;" vertex="1" parent="YhvyymHdfNfUHOdtkPPd-4">
          <mxGeometry y="234" width="140" height="26" as="geometry" />
        </mxCell>
        <mxCell id="YhvyymHdfNfUHOdtkPPd-45" value="- textWidth: int" style="text;strokeColor=none;fillColor=none;align=left;verticalAlign=top;spacingLeft=4;spacingRight=4;overflow=hidden;rotatable=0;points=[[0,0.5],[1,0.5]];portConstraint=eastwest;" vertex="1" parent="YhvyymHdfNfUHOdtkPPd-4">
          <mxGeometry y="260" width="140" height="26" as="geometry" />
        </mxCell>
        <mxCell id="YhvyymHdfNfUHOdtkPPd-43" value="- CBwidth: int" style="text;strokeColor=none;fillColor=none;align=left;verticalAlign=top;spacingLeft=4;spacingRight=4;overflow=hidden;rotatable=0;points=[[0,0.5],[1,0.5]];portConstraint=eastwest;" vertex="1" parent="YhvyymHdfNfUHOdtkPPd-4">
          <mxGeometry y="286" width="140" height="26" as="geometry" />
        </mxCell>
        <mxCell id="YhvyymHdfNfUHOdtkPPd-41" value="- selectWidth: int" style="text;strokeColor=none;fillColor=none;align=left;verticalAlign=top;spacingLeft=4;spacingRight=4;overflow=hidden;rotatable=0;points=[[0,0.5],[1,0.5]];portConstraint=eastwest;" vertex="1" parent="YhvyymHdfNfUHOdtkPPd-4">
          <mxGeometry y="312" width="140" height="26" as="geometry" />
        </mxCell>
        <mxCell id="YhvyymHdfNfUHOdtkPPd-37" value="- ObjHeight: int" style="text;strokeColor=none;fillColor=none;align=left;verticalAlign=top;spacingLeft=4;spacingRight=4;overflow=hidden;rotatable=0;points=[[0,0.5],[1,0.5]];portConstraint=eastwest;" vertex="1" parent="YhvyymHdfNfUHOdtkPPd-4">
          <mxGeometry y="338" width="140" height="26" as="geometry" />
        </mxCell>
        <mxCell id="YhvyymHdfNfUHOdtkPPd-53" value="- categories: String[]" style="text;strokeColor=none;fillColor=none;align=left;verticalAlign=top;spacingLeft=4;spacingRight=4;overflow=hidden;rotatable=0;points=[[0,0.5],[1,0.5]];portConstraint=eastwest;" vertex="1" parent="YhvyymHdfNfUHOdtkPPd-4">
          <mxGeometry y="364" width="140" height="26" as="geometry" />
        </mxCell>
        <mxCell id="YhvyymHdfNfUHOdtkPPd-55" value="- categoriesAmount: int" style="text;strokeColor=none;fillColor=none;align=left;verticalAlign=top;spacingLeft=4;spacingRight=4;overflow=hidden;rotatable=0;points=[[0,0.5],[1,0.5]];portConstraint=eastwest;" vertex="1" parent="YhvyymHdfNfUHOdtkPPd-4">
          <mxGeometry y="390" width="140" height="26" as="geometry" />
        </mxCell>
        <mxCell id="YhvyymHdfNfUHOdtkPPd-54" value="- endScore: Object[][]" style="text;strokeColor=none;fillColor=none;align=left;verticalAlign=top;spacingLeft=4;spacingRight=4;overflow=hidden;rotatable=0;points=[[0,0.5],[1,0.5]];portConstraint=eastwest;" vertex="1" parent="YhvyymHdfNfUHOdtkPPd-4">
          <mxGeometry y="416" width="140" height="26" as="geometry" />
        </mxCell>
        <mxCell id="YhvyymHdfNfUHOdtkPPd-13" value="" style="line;strokeWidth=1;fillColor=none;align=left;verticalAlign=middle;spacingTop=-1;spacingLeft=3;spacingRight=3;rotatable=0;labelPosition=right;points=[];portConstraint=eastwest;" vertex="1" parent="YhvyymHdfNfUHOdtkPPd-4">
          <mxGeometry y="442" width="140" height="8" as="geometry" />
        </mxCell>
        <mxCell id="YhvyymHdfNfUHOdtkPPd-5" value="- callAI(): void" style="text;strokeColor=none;fillColor=none;align=left;verticalAlign=top;spacingLeft=4;spacingRight=4;overflow=hidden;rotatable=0;points=[[0,0.5],[1,0.5]];portConstraint=eastwest;" vertex="1" parent="YhvyymHdfNfUHOdtkPPd-4">
          <mxGeometry y="450" width="140" height="26" as="geometry" />
        </mxCell>
        <mxCell id="YhvyymHdfNfUHOdtkPPd-6" value="- updateTurn(): void" style="text;strokeColor=none;fillColor=none;align=left;verticalAlign=top;spacingLeft=4;spacingRight=4;overflow=hidden;rotatable=0;points=[[0,0.5],[1,0.5]];portConstraint=eastwest;" vertex="1" parent="YhvyymHdfNfUHOdtkPPd-4">
          <mxGeometry y="476" width="140" height="26" as="geometry" />
        </mxCell>
        <mxCell id="YhvyymHdfNfUHOdtkPPd-7" value="- updateUI(): void" style="text;strokeColor=none;fillColor=none;align=left;verticalAlign=top;spacingLeft=4;spacingRight=4;overflow=hidden;rotatable=0;points=[[0,0.5],[1,0.5]];portConstraint=eastwest;" vertex="1" parent="YhvyymHdfNfUHOdtkPPd-4">
          <mxGeometry y="502" width="140" height="26" as="geometry" />
        </mxCell>
        <mxCell id="YhvyymHdfNfUHOdtkPPd-8" value="- value(Object): int" style="text;strokeColor=none;fillColor=none;align=left;verticalAlign=top;spacingLeft=4;spacingRight=4;overflow=hidden;rotatable=0;points=[[0,0.5],[1,0.5]];portConstraint=eastwest;" vertex="1" parent="YhvyymHdfNfUHOdtkPPd-4">
          <mxGeometry y="528" width="140" height="26" as="geometry" />
        </mxCell>
        <mxCell id="YhvyymHdfNfUHOdtkPPd-9" value="- multiplar(int): int" style="text;strokeColor=none;fillColor=none;align=left;verticalAlign=top;spacingLeft=4;spacingRight=4;overflow=hidden;rotatable=0;points=[[0,0.5],[1,0.5]];portConstraint=eastwest;" vertex="1" parent="YhvyymHdfNfUHOdtkPPd-4">
          <mxGeometry y="554" width="140" height="26" as="geometry" />
        </mxCell>
        <mxCell id="YhvyymHdfNfUHOdtkPPd-10" value="- sumOfNum(int): int" style="text;strokeColor=none;fillColor=none;align=left;verticalAlign=top;spacingLeft=4;spacingRight=4;overflow=hidden;rotatable=0;points=[[0,0.5],[1,0.5]];portConstraint=eastwest;" vertex="1" parent="YhvyymHdfNfUHOdtkPPd-4">
          <mxGeometry y="580" width="140" height="26" as="geometry" />
        </mxCell>
        <mxCell id="YhvyymHdfNfUHOdtkPPd-11" value="- tablePos(Object): int" style="text;strokeColor=none;fillColor=none;align=left;verticalAlign=top;spacingLeft=4;spacingRight=4;overflow=hidden;rotatable=0;points=[[0,0.5],[1,0.5]];portConstraint=eastwest;" vertex="1" parent="YhvyymHdfNfUHOdtkPPd-4">
          <mxGeometry y="606" width="140" height="26" as="geometry" />
        </mxCell>
        <mxCell id="YhvyymHdfNfUHOdtkPPd-12" value="- startTable(): Object[][]" style="text;strokeColor=none;fillColor=none;align=left;verticalAlign=top;spacingLeft=4;spacingRight=4;overflow=hidden;rotatable=0;points=[[0,0.5],[1,0.5]];portConstraint=eastwest;" vertex="1" parent="YhvyymHdfNfUHOdtkPPd-4">
          <mxGeometry y="632" width="140" height="26" as="geometry" />
        </mxCell>
        <mxCell id="YhvyymHdfNfUHOdtkPPd-72" style="edgeStyle=orthogonalEdgeStyle;rounded=0;orthogonalLoop=1;jettySize=auto;html=1;" edge="1" parent="WIyWlLk6GJQsqaUBKTNV-1" source="YhvyymHdfNfUHOdtkPPd-19" target="YhvyymHdfNfUHOdtkPPd-4">
          <mxGeometry relative="1" as="geometry" />
        </mxCell>
        <mxCell id="YhvyymHdfNfUHOdtkPPd-73" style="edgeStyle=orthogonalEdgeStyle;rounded=0;orthogonalLoop=1;jettySize=auto;html=1;entryX=0.25;entryY=0;entryDx=0;entryDy=0;" edge="1" parent="WIyWlLk6GJQsqaUBKTNV-1" source="YhvyymHdfNfUHOdtkPPd-19" target="YhvyymHdfNfUHOdtkPPd-15">
          <mxGeometry relative="1" as="geometry">
            <Array as="points">
              <mxPoint x="135" y="200" />
              <mxPoint x="515" y="200" />
            </Array>
          </mxGeometry>
        </mxCell>
        <mxCell id="YhvyymHdfNfUHOdtkPPd-94" value="For debugging" style="edgeLabel;html=1;align=center;verticalAlign=middle;resizable=0;points=[];" vertex="1" connectable="0" parent="YhvyymHdfNfUHOdtkPPd-73">
          <mxGeometry x="-0.3746" relative="1" as="geometry">
            <mxPoint x="-47" as="offset" />
          </mxGeometry>
        </mxCell>
        <mxCell id="YhvyymHdfNfUHOdtkPPd-19" value="Menu" style="swimlane;fontStyle=0;childLayout=stackLayout;horizontal=1;startSize=26;fillColor=none;horizontalStack=0;resizeParent=1;resizeParentMax=0;resizeLast=0;collapsible=1;marginBottom=0;" vertex="1" parent="WIyWlLk6GJQsqaUBKTNV-1">
          <mxGeometry x="30" y="220" width="210" height="138" as="geometry" />
        </mxCell>
        <mxCell id="YhvyymHdfNfUHOdtkPPd-36" value="- int playerAmount" style="text;strokeColor=none;fillColor=none;align=left;verticalAlign=top;spacingLeft=4;spacingRight=4;overflow=hidden;rotatable=0;points=[[0,0.5],[1,0.5]];portConstraint=eastwest;" vertex="1" parent="YhvyymHdfNfUHOdtkPPd-19">
          <mxGeometry y="26" width="210" height="26" as="geometry" />
        </mxCell>
        <mxCell id="YhvyymHdfNfUHOdtkPPd-35" value="- int aiAmount" style="text;strokeColor=none;fillColor=none;align=left;verticalAlign=top;spacingLeft=4;spacingRight=4;overflow=hidden;rotatable=0;points=[[0,0.5],[1,0.5]];portConstraint=eastwest;" vertex="1" parent="YhvyymHdfNfUHOdtkPPd-19">
          <mxGeometry y="52" width="210" height="26" as="geometry" />
        </mxCell>
        <mxCell id="YhvyymHdfNfUHOdtkPPd-34" value="" style="line;strokeWidth=1;fillColor=none;align=left;verticalAlign=middle;spacingTop=-1;spacingLeft=3;spacingRight=3;rotatable=0;labelPosition=right;points=[];portConstraint=eastwest;" vertex="1" parent="YhvyymHdfNfUHOdtkPPd-19">
          <mxGeometry y="78" width="210" height="8" as="geometry" />
        </mxCell>
        <mxCell id="YhvyymHdfNfUHOdtkPPd-20" value="+ players(String[]): String[]" style="text;strokeColor=none;fillColor=none;align=left;verticalAlign=top;spacingLeft=4;spacingRight=4;overflow=hidden;rotatable=0;points=[[0,0.5],[1,0.5]];portConstraint=eastwest;" vertex="1" parent="YhvyymHdfNfUHOdtkPPd-19">
          <mxGeometry y="86" width="210" height="26" as="geometry" />
        </mxCell>
        <mxCell id="YhvyymHdfNfUHOdtkPPd-21" value="+ computerPlayers(String[]): String[]" style="text;strokeColor=none;fillColor=none;align=left;verticalAlign=top;spacingLeft=4;spacingRight=4;overflow=hidden;rotatable=0;points=[[0,0.5],[1,0.5]];portConstraint=eastwest;" vertex="1" parent="YhvyymHdfNfUHOdtkPPd-19">
          <mxGeometry y="112" width="210" height="26" as="geometry" />
        </mxCell>
        <mxCell id="YhvyymHdfNfUHOdtkPPd-23" value="Highscore" style="swimlane;fontStyle=0;childLayout=stackLayout;horizontal=1;startSize=26;fillColor=none;horizontalStack=0;resizeParent=1;resizeParentMax=0;resizeLast=0;collapsible=1;marginBottom=0;" vertex="1" parent="WIyWlLk6GJQsqaUBKTNV-1">
          <mxGeometry x="710" y="220" width="260" height="138" as="geometry" />
        </mxCell>
        <mxCell id="YhvyymHdfNfUHOdtkPPd-24" value="-Map&lt;Integer, String&gt;" style="text;strokeColor=none;fillColor=none;align=left;verticalAlign=top;spacingLeft=4;spacingRight=4;overflow=hidden;rotatable=0;points=[[0,0.5],[1,0.5]];portConstraint=eastwest;" vertex="1" parent="YhvyymHdfNfUHOdtkPPd-23">
          <mxGeometry y="26" width="260" height="26" as="geometry" />
        </mxCell>
        <mxCell id="YhvyymHdfNfUHOdtkPPd-56" value="" style="line;strokeWidth=1;fillColor=none;align=left;verticalAlign=middle;spacingTop=-1;spacingLeft=3;spacingRight=3;rotatable=0;labelPosition=right;points=[];portConstraint=eastwest;" vertex="1" parent="YhvyymHdfNfUHOdtkPPd-23">
          <mxGeometry y="52" width="260" height="8" as="geometry" />
        </mxCell>
        <mxCell id="YhvyymHdfNfUHOdtkPPd-25" value="+ addScore(int,String): void" style="text;strokeColor=none;fillColor=none;align=left;verticalAlign=top;spacingLeft=4;spacingRight=4;overflow=hidden;rotatable=0;points=[[0,0.5],[1,0.5]];portConstraint=eastwest;" vertex="1" parent="YhvyymHdfNfUHOdtkPPd-23">
          <mxGeometry y="60" width="260" height="26" as="geometry" />
        </mxCell>
        <mxCell id="YhvyymHdfNfUHOdtkPPd-26" value="- read(String) : void" style="text;strokeColor=none;fillColor=none;align=left;verticalAlign=top;spacingLeft=4;spacingRight=4;overflow=hidden;rotatable=0;points=[[0,0.5],[1,0.5]];portConstraint=eastwest;" vertex="1" parent="YhvyymHdfNfUHOdtkPPd-23">
          <mxGeometry y="86" width="260" height="26" as="geometry" />
        </mxCell>
        <mxCell id="YhvyymHdfNfUHOdtkPPd-57" value="- write(String): void" style="text;strokeColor=none;fillColor=none;align=left;verticalAlign=top;spacingLeft=4;spacingRight=4;overflow=hidden;rotatable=0;points=[[0,0.5],[1,0.5]];portConstraint=eastwest;" vertex="1" parent="YhvyymHdfNfUHOdtkPPd-23">
          <mxGeometry y="112" width="260" height="26" as="geometry" />
        </mxCell>
        <mxCell id="YhvyymHdfNfUHOdtkPPd-74" style="edgeStyle=orthogonalEdgeStyle;rounded=0;orthogonalLoop=1;jettySize=auto;html=1;" edge="1" parent="WIyWlLk6GJQsqaUBKTNV-1" source="YhvyymHdfNfUHOdtkPPd-15" target="YhvyymHdfNfUHOdtkPPd-23">
          <mxGeometry relative="1" as="geometry" />
        </mxCell>
        <mxCell id="YhvyymHdfNfUHOdtkPPd-15" value="EndScreen" style="swimlane;fontStyle=0;childLayout=stackLayout;horizontal=1;startSize=26;fillColor=none;horizontalStack=0;resizeParent=1;resizeParentMax=0;resizeLast=0;collapsible=1;marginBottom=0;" vertex="1" parent="WIyWlLk6GJQsqaUBKTNV-1">
          <mxGeometry x="480" y="220" width="140" height="52" as="geometry" />
        </mxCell>
        <mxCell id="YhvyymHdfNfUHOdtkPPd-16" value="- endScore[][]" style="text;strokeColor=none;fillColor=none;align=left;verticalAlign=top;spacingLeft=4;spacingRight=4;overflow=hidden;rotatable=0;points=[[0,0.5],[1,0.5]];portConstraint=eastwest;" vertex="1" parent="YhvyymHdfNfUHOdtkPPd-15">
          <mxGeometry y="26" width="140" height="26" as="geometry" />
        </mxCell>
        <mxCell id="YhvyymHdfNfUHOdtkPPd-71" style="edgeStyle=orthogonalEdgeStyle;rounded=0;orthogonalLoop=1;jettySize=auto;html=1;" edge="1" parent="WIyWlLk6GJQsqaUBKTNV-1" source="YhvyymHdfNfUHOdtkPPd-58" target="YhvyymHdfNfUHOdtkPPd-4">
          <mxGeometry relative="1" as="geometry">
            <Array as="points">
              <mxPoint x="610" y="770" />
              <mxPoint x="470" y="770" />
              <mxPoint x="470" y="720" />
            </Array>
          </mxGeometry>
        </mxCell>
        <mxCell id="YhvyymHdfNfUHOdtkPPd-58" value="Player" style="swimlane;fontStyle=1;align=center;verticalAlign=top;childLayout=stackLayout;horizontal=1;startSize=26;horizontalStack=0;resizeParent=1;resizeParentMax=0;resizeLast=0;collapsible=1;marginBottom=0;" vertex="1" parent="WIyWlLk6GJQsqaUBKTNV-1">
          <mxGeometry x="510" y="810" width="200" height="86" as="geometry" />
        </mxCell>
        <mxCell id="YhvyymHdfNfUHOdtkPPd-59" value="LinkedList&lt;String&gt;" style="text;strokeColor=none;fillColor=none;align=left;verticalAlign=top;spacingLeft=4;spacingRight=4;overflow=hidden;rotatable=0;points=[[0,0.5],[1,0.5]];portConstraint=eastwest;" vertex="1" parent="YhvyymHdfNfUHOdtkPPd-58">
          <mxGeometry y="26" width="200" height="26" as="geometry" />
        </mxCell>
        <mxCell id="YhvyymHdfNfUHOdtkPPd-60" value="" style="line;strokeWidth=1;fillColor=none;align=left;verticalAlign=middle;spacingTop=-1;spacingLeft=3;spacingRight=3;rotatable=0;labelPosition=right;points=[];portConstraint=eastwest;" vertex="1" parent="YhvyymHdfNfUHOdtkPPd-58">
          <mxGeometry y="52" width="200" height="8" as="geometry" />
        </mxCell>
        <mxCell id="YhvyymHdfNfUHOdtkPPd-61" value="+setCategories(Object[][]): String[]" style="text;strokeColor=none;fillColor=none;align=left;verticalAlign=top;spacingLeft=4;spacingRight=4;overflow=hidden;rotatable=0;points=[[0,0.5],[1,0.5]];portConstraint=eastwest;" vertex="1" parent="YhvyymHdfNfUHOdtkPPd-58">
          <mxGeometry y="60" width="200" height="26" as="geometry" />
        </mxCell>
        <mxCell id="YhvyymHdfNfUHOdtkPPd-66" value="Extends" style="endArrow=block;endSize=16;endFill=0;html=1;rounded=0;exitX=0.5;exitY=0;exitDx=0;exitDy=0;" edge="1" parent="WIyWlLk6GJQsqaUBKTNV-1" source="YhvyymHdfNfUHOdtkPPd-4" target="YhvyymHdfNfUHOdtkPPd-0">
          <mxGeometry width="160" relative="1" as="geometry">
            <mxPoint x="300" y="170" as="sourcePoint" />
            <mxPoint x="460" y="170" as="targetPoint" />
          </mxGeometry>
        </mxCell>
        <mxCell id="YhvyymHdfNfUHOdtkPPd-67" value="Extends" style="endArrow=block;endSize=16;endFill=0;html=1;rounded=0;" edge="1" parent="WIyWlLk6GJQsqaUBKTNV-1" source="YhvyymHdfNfUHOdtkPPd-19" target="YhvyymHdfNfUHOdtkPPd-0">
          <mxGeometry width="160" relative="1" as="geometry">
            <mxPoint x="150" y="120" as="sourcePoint" />
            <mxPoint x="310" y="120" as="targetPoint" />
          </mxGeometry>
        </mxCell>
        <mxCell id="YhvyymHdfNfUHOdtkPPd-68" value="Extends" style="endArrow=block;endSize=16;endFill=0;html=1;rounded=0;exitX=0.5;exitY=0;exitDx=0;exitDy=0;" edge="1" parent="WIyWlLk6GJQsqaUBKTNV-1" source="YhvyymHdfNfUHOdtkPPd-15" target="YhvyymHdfNfUHOdtkPPd-0">
          <mxGeometry width="160" relative="1" as="geometry">
            <mxPoint x="570" y="170" as="sourcePoint" />
            <mxPoint x="730" y="170" as="targetPoint" />
          </mxGeometry>
        </mxCell>
        <mxCell id="YhvyymHdfNfUHOdtkPPd-69" value="Extends" style="endArrow=block;endSize=16;endFill=0;html=1;rounded=0;" edge="1" parent="WIyWlLk6GJQsqaUBKTNV-1" source="YhvyymHdfNfUHOdtkPPd-23" target="YhvyymHdfNfUHOdtkPPd-0">
          <mxGeometry width="160" relative="1" as="geometry">
            <mxPoint x="670" y="160" as="sourcePoint" />
            <mxPoint x="830" y="160" as="targetPoint" />
          </mxGeometry>
        </mxCell>
        <mxCell id="YhvyymHdfNfUHOdtkPPd-81" value="JFrame" style="html=1;" vertex="1" parent="WIyWlLk6GJQsqaUBKTNV-1">
          <mxGeometry x="429" y="-100" width="110" height="50" as="geometry" />
        </mxCell>
        <mxCell id="YhvyymHdfNfUHOdtkPPd-82" value="Extends" style="endArrow=block;endSize=16;endFill=0;html=1;rounded=0;" edge="1" parent="WIyWlLk6GJQsqaUBKTNV-1" source="YhvyymHdfNfUHOdtkPPd-0" target="YhvyymHdfNfUHOdtkPPd-81">
          <mxGeometry width="160" relative="1" as="geometry">
            <mxPoint x="560" y="-10" as="sourcePoint" />
            <mxPoint x="720" y="-10" as="targetPoint" />
          </mxGeometry>
        </mxCell>
        <mxCell id="YhvyymHdfNfUHOdtkPPd-85" style="edgeStyle=orthogonalEdgeStyle;rounded=0;orthogonalLoop=1;jettySize=auto;html=1;" edge="1" parent="WIyWlLk6GJQsqaUBKTNV-1" source="YhvyymHdfNfUHOdtkPPd-84" target="YhvyymHdfNfUHOdtkPPd-19">
          <mxGeometry relative="1" as="geometry" />
        </mxCell>
        <mxCell id="YhvyymHdfNfUHOdtkPPd-84" value="MAIN" style="html=1;" vertex="1" parent="WIyWlLk6GJQsqaUBKTNV-1">
          <mxGeometry x="-170" y="264" width="110" height="50" as="geometry" />
        </mxCell>
        <mxCell id="YhvyymHdfNfUHOdtkPPd-93" style="edgeStyle=orthogonalEdgeStyle;rounded=0;orthogonalLoop=1;jettySize=auto;html=1;" edge="1" parent="WIyWlLk6GJQsqaUBKTNV-1" source="YhvyymHdfNfUHOdtkPPd-86" target="YhvyymHdfNfUHOdtkPPd-4">
          <mxGeometry relative="1" as="geometry">
            <Array as="points">
              <mxPoint x="470" y="592" />
              <mxPoint x="470" y="592" />
            </Array>
          </mxGeometry>
        </mxCell>
        <mxCell id="YhvyymHdfNfUHOdtkPPd-86" value="Dice" style="swimlane;fontStyle=1;align=center;verticalAlign=top;childLayout=stackLayout;horizontal=1;startSize=26;horizontalStack=0;resizeParent=1;resizeParentMax=0;resizeLast=0;collapsible=1;marginBottom=0;" vertex="1" parent="WIyWlLk6GJQsqaUBKTNV-1">
          <mxGeometry x="530" y="510" width="280" height="164" as="geometry" />
        </mxCell>
        <mxCell id="YhvyymHdfNfUHOdtkPPd-87" value="- dice: Object[][]" style="text;strokeColor=none;fillColor=none;align=left;verticalAlign=top;spacingLeft=4;spacingRight=4;overflow=hidden;rotatable=0;points=[[0,0.5],[1,0.5]];portConstraint=eastwest;" vertex="1" parent="YhvyymHdfNfUHOdtkPPd-86">
          <mxGeometry y="26" width="280" height="26" as="geometry" />
        </mxCell>
        <mxCell id="YhvyymHdfNfUHOdtkPPd-88" value="" style="line;strokeWidth=1;fillColor=none;align=left;verticalAlign=middle;spacingTop=-1;spacingLeft=3;spacingRight=3;rotatable=0;labelPosition=right;points=[];portConstraint=eastwest;" vertex="1" parent="YhvyymHdfNfUHOdtkPPd-86">
          <mxGeometry y="52" width="280" height="8" as="geometry" />
        </mxCell>
        <mxCell id="YhvyymHdfNfUHOdtkPPd-89" value="- setStartDice(): void" style="text;strokeColor=none;fillColor=none;align=left;verticalAlign=top;spacingLeft=4;spacingRight=4;overflow=hidden;rotatable=0;points=[[0,0.5],[1,0.5]];portConstraint=eastwest;" vertex="1" parent="YhvyymHdfNfUHOdtkPPd-86">
          <mxGeometry y="60" width="280" height="26" as="geometry" />
        </mxCell>
        <mxCell id="YhvyymHdfNfUHOdtkPPd-90" value="+ rollDice()" style="text;strokeColor=none;fillColor=none;align=left;verticalAlign=top;spacingLeft=4;spacingRight=4;overflow=hidden;rotatable=0;points=[[0,0.5],[1,0.5]];portConstraint=eastwest;" vertex="1" parent="YhvyymHdfNfUHOdtkPPd-86">
          <mxGeometry y="86" width="280" height="26" as="geometry" />
        </mxCell>
        <mxCell id="YhvyymHdfNfUHOdtkPPd-91" value="+ getDice(): Object[][]" style="text;strokeColor=none;fillColor=none;align=left;verticalAlign=top;spacingLeft=4;spacingRight=4;overflow=hidden;rotatable=0;points=[[0,0.5],[1,0.5]];portConstraint=eastwest;" vertex="1" parent="YhvyymHdfNfUHOdtkPPd-86">
          <mxGeometry y="112" width="280" height="26" as="geometry" />
        </mxCell>
        <mxCell id="YhvyymHdfNfUHOdtkPPd-92" value="+ enableDice(bool, bool, bool, bool, bool): void" style="text;strokeColor=none;fillColor=none;align=left;verticalAlign=top;spacingLeft=4;spacingRight=4;overflow=hidden;rotatable=0;points=[[0,0.5],[1,0.5]];portConstraint=eastwest;" vertex="1" parent="YhvyymHdfNfUHOdtkPPd-86">
          <mxGeometry y="138" width="280" height="26" as="geometry" />
        </mxCell>
        <mxCell id="YhvyymHdfNfUHOdtkPPd-98" style="edgeStyle=orthogonalEdgeStyle;rounded=0;orthogonalLoop=1;jettySize=auto;html=1;" edge="1" parent="WIyWlLk6GJQsqaUBKTNV-1" source="YhvyymHdfNfUHOdtkPPd-95" target="YhvyymHdfNfUHOdtkPPd-15">
          <mxGeometry relative="1" as="geometry" />
        </mxCell>
        <mxCell id="YhvyymHdfNfUHOdtkPPd-99" style="edgeStyle=orthogonalEdgeStyle;rounded=0;orthogonalLoop=1;jettySize=auto;html=1;" edge="1" parent="WIyWlLk6GJQsqaUBKTNV-1" source="YhvyymHdfNfUHOdtkPPd-95" target="YhvyymHdfNfUHOdtkPPd-23">
          <mxGeometry relative="1" as="geometry" />
        </mxCell>
        <mxCell id="YhvyymHdfNfUHOdtkPPd-100" style="edgeStyle=orthogonalEdgeStyle;rounded=0;orthogonalLoop=1;jettySize=auto;html=1;" edge="1" parent="WIyWlLk6GJQsqaUBKTNV-1" source="YhvyymHdfNfUHOdtkPPd-95" target="YhvyymHdfNfUHOdtkPPd-4">
          <mxGeometry relative="1" as="geometry" />
        </mxCell>
        <mxCell id="YhvyymHdfNfUHOdtkPPd-95" value="Swing objects" style="html=1;" vertex="1" parent="WIyWlLk6GJQsqaUBKTNV-1">
          <mxGeometry x="570" y="390" width="110" height="50" as="geometry" />
        </mxCell>
      </root>
    </mxGraphModel>
  </diagram>
</mxfile>
